<?xml version="1.0" standalone="no"?><!DOCTYPE svg PUBLIC "-//W3C//DTD SVG 1.1//EN" "http://www.w3.org/Graphics/SVG/1.1/DTD/svg11.dtd"><svg t="1589276113978" class="icon" viewBox="0 0 1024 1024" version="1.1" xmlns="http://www.w3.org/2000/svg" p-id="28840" xmlns:xlink="http://www.w3.org/1999/xlink" width="200" height="200"><defs><style type="text/css"></style></defs><path d="M904.268058 63.408145 535.491017 63.408145c-14.982226 0-29.262464 5.958712-39.863916 16.471137L79.889515 495.616868c-21.99085 21.989827-21.99085 57.651025 0 79.729879l368.777041 368.772948c11.037381 11.037381 25.40767 16.471137 39.863916 16.471137 14.455223 0 28.825512-5.51869 39.862893-16.471137l415.738609-415.737586c10.600429-10.601452 16.471137-24.88169 16.471137-39.863916L960.603111 119.746268C960.603111 88.639806 935.370427 63.408145 904.268058 63.408145L904.268058 63.408145zM904.530025 488.519216c0 0.084934 0 0.174985-0.086981 0.174985l-415.737586 415.738609-0.084934 0.084934-0.090051 0-0.084934 0 0 0-0.090051-0.084934L119.581516 535.655769l-0.090051-0.084934 0-0.265036 0.090051-0.084934 415.733493-415.648558c0.090051-0.090051 0.090051-0.090051 0.176009-0.090051l368.777041 0 0.084934 0 0 0c0.090051 0 0.176009 0.174985 0.176009 0.174985l0 0.090051L904.529001 488.519216 904.530025 488.519216zM904.530025 488.519216" p-id="28841"></path><path d="M680.232562 231.632521c-61.942771 0-112.147196 50.202379-112.147196 112.146173 0 61.942771 50.203402 112.146173 112.147196 112.146173 61.946864 0 112.150266-50.202379 112.150266-112.146173C792.382828 281.8349 742.179426 231.632521 680.232562 231.632521L680.232562 231.632521zM680.232562 399.850757c-30.927383 0-56.073086-25.146727-56.073086-56.073086 0-30.92636 25.145703-56.073086 56.073086-56.073086 30.930453 0 56.07718 25.146727 56.07718 56.073086C736.309742 374.704031 711.163015 399.850757 680.232562 399.850757L680.232562 399.850757zM680.232562 399.850757" p-id="28842"></path></svg>